<svg xmlns="http://www.w3.org/2000/svg" width="20" height="20" viewBox="0 0 20 20" fill="none">
  <path fill="#fff" fill-rule="evenodd" d="M8.03 17.643a29.323 29.323 0 0 0-.115-.11c-.27-.257-.543-.502-.786-.602-.255-.106-.677-.112-1.087-.119h-.005c-.762-.011-1.625-.024-2.224-.625-.6-.6-.614-1.462-.625-2.224v-.005c-.007-.41-.013-.832-.12-1.087-.113-.277-.414-.591-.707-.897l-.006-.007C1.837 11.427 1.25 10.816 1.25 10c0-.816.587-1.428 1.105-1.967l.002-.003" clip-rule="evenodd"></path>
  <path fill="#fff" d="m13.567 8.567-4.375 4.375a.626.626 0 0 1-.884 0l-1.875-1.875a.625.625 0 0 1 .884-.884l1.433 1.433 3.933-3.933a.626.626 0 0 1 .884.884Z"></path>
  <path fill="#8F2BF2" d="M17.645 8.033c-.294-.308-.599-.625-.714-.904-.106-.256-.112-.679-.119-1.09-.011-.762-.024-1.626-.625-2.226-.6-.601-1.464-.614-2.227-.626-.41-.006-.833-.012-1.089-.118-.278-.115-.596-.42-.904-.714C11.428 1.837 10.816 1.25 10 1.25c-.816 0-1.427.587-1.967 1.105-.308.294-.625.599-.904.714-.254.106-.679.112-1.09.119-.762.011-1.626.024-2.226.624-.601.601-.61 1.465-.626 2.228-.006.41-.012.833-.118 1.089-.115.278-.42.596-.714.904C1.837 8.572 1.25 9.184 1.25 10c0 .816.587 1.427 1.105 1.967.294.308.599.625.714.904.106.256.112.679.119 1.09.011.762.024 1.626.624 2.226.601.601 1.465.614 2.228.625.41.007.833.013 1.089.12.278.114.596.419.904.713.539.518 1.151 1.105 1.967 1.105.816 0 1.427-.587 1.967-1.105.308-.294.625-.599.904-.714.256-.106.679-.112 1.09-.119.762-.011 1.626-.024 2.226-.625.601-.6.614-1.464.625-2.227.007-.41.013-.833.12-1.089.114-.278.419-.596.713-.904.518-.539 1.105-1.151 1.105-1.967 0-.816-.587-1.427-1.105-1.967Zm-4.078.534-4.375 4.375a.626.626 0 0 1-.884 0l-1.875-1.875a.625.625 0 0 1 .884-.884l1.433 1.433 3.933-3.933a.626.626 0 0 1 .884.884Z"></path>
</svg>
