<svg xmlns="http://www.w3.org/2000/svg" width="24" height="18" fill="none" viewBox="0 0 24 18">
  <path d="m6.915 13.16.477-.578-.477.579Zm-.389-.312-.448.601.448-.601Zm-2.743-.985-.037.749.037-.75Zm0-5.726-.037-.75.037.75Zm3.132-1.298.477.579-.477-.579Zm-.389.313.448.601-.448-.601Zm-5.514 4.927-.745.084.745-.084Zm1.766 1.765-.084.746.084-.745Zm10.348 4.569-.422-.62.422.62ZM7.91 13.98l-.477.58.477-.58Zm4.649 2.699-.21-.72.21.72Zm.566-15.093.422-.62-.422.62ZM7.91 4.018l-.477-.579.477.58ZM12.56 1.32l-.21.72.21-.72ZM1.012 7.92l-.745-.083.745.083Zm1.766-1.765-.084-.745.084.745Zm15.874.436a.75.75 0 0 0-1.061 1.06l1.06-1.06Zm3.182 5.303a.75.75 0 1 0 1.06-1.06l-1.06 1.06Zm-4.243-1.06a.75.75 0 0 0 1.06 1.06l-1.06-1.06Zm5.303-3.183a.75.75 0 0 0-1.06-1.06l1.06 1.06Zm-9.644-.76v4.218h1.5V6.89h-1.5ZM1.75 9.572V8.426H.25v1.147h1.5Zm5.642-4.155.996-.821-.954-1.158-.996.821.954 1.158Zm.996 7.985-.996-.821-.954 1.157.996.821.954-1.157Zm-.996-.821c-.188-.155-.302-.25-.418-.336l-.896 1.203c.08.06.16.126.36.29l.954-1.157Zm-4.108.025c.258 0 .363 0 .462.005l.073-1.498c-.144-.007-.291-.007-.535-.007v1.5Zm3.69-.36a5.75 5.75 0 0 0-3.155-1.133l-.073 1.498a4.25 4.25 0 0 1 2.332.837l.896-1.203Zm-3.69-5.354c.244 0 .39 0 .535-.007l-.073-1.498c-.1.004-.204.005-.462.005v1.5ZM6.438 4.26c-.2.165-.28.23-.36.29l.896 1.203c.116-.086.23-.18.418-.335L6.438 4.26ZM3.819 6.886a5.75 5.75 0 0 0 3.155-1.133l-.896-1.202a4.25 4.25 0 0 1-2.332.837l.073 1.498ZM.25 9.573c0 .243-.001.427.017.59l1.49-.167a4.685 4.685 0 0 1-.007-.423H.25Zm3.034 1.534c-.284 0-.364-.001-.423-.008l-.167 1.49c.163.02.346.018.59.018v-1.5Zm-3.017-.944a2.75 2.75 0 0 0 2.427 2.427l.167-1.49a1.25 1.25 0 0 1-1.103-1.104l-1.49.167Zm12.983.946c0 1.591-.002 2.71-.103 3.511-.104.816-.288 1.067-.443 1.173l.844 1.24c.719-.49.972-1.321 1.087-2.224.117-.917.115-2.152.115-3.7h-1.5ZM7.434 14.56c1.194.984 2.146 1.77 2.929 2.264.77.486 1.572.82 2.407.576l-.42-1.44c-.18.052-.492.034-1.187-.404-.682-.43-1.547-1.141-2.775-2.153l-.954 1.157Zm5.27 1.233a1.25 1.25 0 0 1-.354.167l.42 1.44c.277-.08.54-.205.778-.367l-.844-1.24ZM14.75 6.89c0-1.547.002-2.782-.115-3.7-.115-.902-.368-1.734-1.087-2.223l-.844 1.24c.155.105.339.357.443 1.172.101.8.103 1.92.103 3.511h1.5ZM8.388 4.597c1.228-1.012 2.093-1.723 2.775-2.153.695-.439 1.006-.457 1.187-.404L12.77.6c-.835-.244-1.638.09-2.407.575-.783.494-1.735 1.28-2.929 2.264l.954 1.158Zm5.16-3.63A2.75 2.75 0 0 0 12.77.6l-.42 1.44c.126.037.245.093.354.167l.844-1.24ZM1.75 8.427c0-.284.001-.365.008-.423l-1.49-.167c-.02.163-.018.346-.018.59h1.5Zm1.534-3.034c-.244 0-.427-.002-.59.017l.167 1.49c.059-.006.139-.007.423-.007v-1.5Zm-1.526 2.61A1.25 1.25 0 0 1 2.86 6.9l-.167-1.49A2.75 2.75 0 0 0 .267 7.837l1.49.167Zm16.894 3.891 4.242-4.243-1.06-1.06-4.243 4.242 1.06 1.061ZM17.59 7.651l2.121 2.122 1.061-1.06-2.121-2.122-1.061 1.06Zm2.121 2.122 2.122 2.121 1.06-1.06-2.121-2.122-1.06 1.06Z" fill="white"></path>
</svg>
