<svg width="56" height="56" viewBox="0 0 56 56" fill="none" xmlns="http://www.w3.org/2000/svg" class="Player-PlayButton">
  <path opacity="0.5" fill-rule="evenodd" clip-rule="evenodd" d="M28 56C43.464 56 56 43.464 56 28C56 12.536 43.464 0 28 0C12.536 0 0 12.536 0 28C0 43.464 12.536 56 28 56ZM36.6132 26.203C36.022 24.8916 34.2603 23.8871 30.7368 21.8781C27.2134 19.8691 25.4517 18.8646 24.0061 19.0147C22.7451 19.1456 21.5996 19.7987 20.8544 20.8117C20 21.973 20 23.982 20 28C20 32.018 20 34.027 20.8544 35.1883C21.5996 36.2013 22.7451 36.8545 24.0061 36.9853C25.4517 37.1354 27.2134 36.1309 30.7368 34.1219C34.2603 32.1129 36.022 31.1084 36.6132 29.797C37.1289 28.6531 37.1289 27.3469 36.6132 26.203Z" fill="white"></path>
</svg>
