<svg width="24" height="18" viewBox="0 0 24 18" fill="none" xmlns="http://www.w3.org/2000/svg">
  <path d="M17 12.7312L17.4 12.3312C17.4599 12.2714 17.4898 12.2415 17.5147 12.2158C19.4003 10.2754 19.4003 7.18709 17.5147 5.2467C17.4898 5.22102 17.4599 5.19109 17.4 5.13124L17 4.73124M19 15.7312L19.7 15.0312C20.2973 14.434 20.5959 14.1354 20.8251 13.8611C23.3067 10.8914 23.3067 6.57109 20.8251 3.60138C20.5959 3.32712 20.2972 3.02848 19.7 2.43124L19 1.73124M6.91496 12.8919L7.91095 13.7128C10.3331 15.7091 11.5442 16.7072 12.5596 16.4113C12.7612 16.3525 12.9523 16.2624 13.1258 16.1442C14 15.5489 14 13.9795 14 10.8407V6.62183C14 3.48302 14 1.91362 13.1258 1.31825C12.9523 1.20008 12.7612 1.10997 12.5596 1.05122C11.5442 0.755249 10.3331 1.75339 7.91095 3.74968L6.91496 4.57056C6.72104 4.73038 6.62409 4.81029 6.52604 4.88335C5.72972 5.47675 4.77473 5.81958 3.78282 5.86812C3.66069 5.8741 3.53505 5.8741 3.28376 5.8741C3.02022 5.8741 2.88845 5.8741 2.7776 5.8865C1.84914 5.99039 1.11629 6.72323 1.0124 7.65169C1 7.76255 1 7.89432 1 8.15786V9.30462C1 9.56816 1 9.69993 1.0124 9.81079C1.11629 10.7392 1.84914 11.4721 2.7776 11.576C2.88845 11.5884 3.02022 11.5884 3.28376 11.5884C3.53505 11.5884 3.66069 11.5884 3.78282 11.5944C4.77473 11.6429 5.72972 11.9857 6.52604 12.5791C6.62409 12.6522 6.72104 12.7321 6.91496 12.8919Z" stroke="white" stroke-width="1.5" stroke-linecap="round"></path>
</svg>
